# xmcd CD database file
#
# Track frame offsets:
#	151
#	19852
#	45976
#	59882
#	82051
#	99681
#	115621
#	131709
#	144081
#	174789
#	191624
#	210035
#	230373
#	250085
#	273230
#	300519
#	317261
#
# Disc length: 4469 seconds
#
# Revision: 0
# Processed by: cddbd v1.5PL3 Copyright (c) Steve Scherf et al.
# Submitted via: CDex 1.50beta9
#
DISCID=d5117311
DTITLE=憂歌団 - 17/18oz. 〜THE VERY BEST OF UKADAN〜
DYEAR=1991
DGENRE=Blues
TTITLE0=胸が痛い -'91NEW VERSION-
TTITLE1=サンセット理髪店
TTITLE2=心はいつも上天気
TTITLE3=LOVE IN THE JUNGLE
TTITLE4=想い出の街
TTITLE5=俺の村では俺も人気者 -'91NEW VERSION-
TTITLE6=おそうじオバチャン -未発表LIVE TAKE〜TALK SESSION
TTITLE7=嫌んなった -未発表LIVE TAKE-
TTITLE8=シカゴバウンド
TTITLE9=ちっちゃなダイヤモンド
TTITLE10=ザ・エン歌
TTITLE11=大阪ビッグ・リバー・ブルース
TTITLE12=かぞえきれない雨
TTITLE13=とどかぬ想い 〜I Say Love You，Only〜
TTITLE14=Good time's rollin'，bad times rollin'
TTITLE15=夢 -'91NEW VERSION-
TTITLE16=キスに願いを
EXTD=YEAR: 1991/11/21
EXTT0=
EXTT1=
EXTT2=
EXTT3=
EXTT4=
EXTT5=
EXTT6=
EXTT7=
EXTT8=
EXTT9=
EXTT10=
EXTT11=
EXTT12=
EXTT13=
EXTT14=
EXTT15=
EXTT16=
PLAYORDER=
